<svg width="100" height="50" viewBox="0 0 265 300" fill="none" xmlns="http://www.w3.org/2000/svg">
<path d="M264.525 0L240.426 269.969L132.101 300L24.0734 270.011L0 0H264.525Z" fill="#264DE4"/>
<path d="M132.262 277.046L219.794 252.779L240.388 22.0781H132.262V277.046Z" fill="#2965F1"/>
<path d="M132.263 122.223H55.188L58.1561 155.338H132.263V122.223Z" fill="#EBEBEB"/>
<path d="M132.262 55.1924H132.148H49.2236L52.234 88.3085H132.262V55.1924Z" fill="#EBEBEB"/>
<path d="M59.6353 171.895L64.2748 223.891L132.11 242.722L132.262 242.68V208.226L132.117 208.265L95.236 198.306L92.8783 171.895H74.9569H59.6353Z" fill="#EBEBEB"/>
<path d="M172.926 155.335L169.082 198.283L132.147 208.252V242.705L200.037 223.89L200.535 218.295L208.317 131.112L209.125 122.219L215.103 55.1924H132.147V88.3085H178.811L175.798 122.219H132.147V155.335H172.926Z" fill="white"/>
</svg>
