<svg width="76" height="55" viewBox="0 0 76 55" fill="none" xmlns="http://www.w3.org/2000/svg">
<path d="M62.8814 14.3547C60.9932 8.74899 53.2507 8.74899 51.7404 13.3882C50.2298 18.0273 55.3284 20.7334 63.2593 23.4399C71.1903 26.1462 76.1001 33.2985 75.1559 39.6772C74.2116 46.0558 71.5679 54.3681 55.895 54.3681C46.0994 54.3681 40.6556 48.1007 37.9501 43.4005L46.8308 37.9374C46.8308 37.9374 49.8522 44.5098 55.517 44.5098C61.1822 44.5098 63.448 42.5769 63.448 38.1309C63.448 32.7185 45.131 30.7857 42.2986 21.507C39.4662 12.2284 43.2429 -0.915926 56.461 0.0503758C64.7227 0.654518 69.3696 4.80728 71.6932 7.83695L62.8814 14.3547Z" fill="#E4BA42"/>
<path d="M21.7157 1.01709C21.7157 1.01709 21.7157 33.685 21.7157 38.131C21.7157 42.5767 17.939 44.8967 14.1624 44.1233C10.3857 43.3502 8.68623 38.711 8.68623 38.711L0 44.7033C0 44.7033 1.8882 53.5951 13.7848 54.3685C25.6813 55.1417 32.4791 47.7962 32.4791 41.6105C32.4791 35.4247 32.4791 1.01709 32.4791 1.01709H21.7157Z" fill="#E4BA42"/>
</svg>
