<svg width="100" height="50" viewBox="0 0 285 201" fill="none" xmlns="http://www.w3.org/2000/svg">
<path d="M237.279 52.9147C230.154 32.2507 200.938 32.2507 195.239 49.3517C189.539 66.4527 208.778 76.4277 238.705 86.4047C268.632 96.3807 287.159 122.746 283.596 146.259C280.033 169.772 270.057 200.413 210.916 200.413C173.953 200.413 153.411 177.31 143.202 159.984L176.713 139.846C176.713 139.846 188.114 164.073 209.49 164.073C230.867 164.073 239.417 156.948 239.417 140.559C239.417 120.608 170.299 113.483 159.611 79.2797C148.923 45.0767 163.174 -3.3763 213.052 0.185696C244.227 2.4127 261.762 17.7207 270.53 28.8887L237.279 52.9147Z" fill="#E4BA42"/>
<path d="M81.943 3.75C81.943 3.75 81.943 124.171 81.943 140.56C81.943 156.948 67.692 165.5 53.441 162.649C39.19 159.799 32.777 142.698 32.777 142.698L0 164.787C0 164.787 7.12501 197.564 52.016 200.415C96.907 203.265 122.558 176.188 122.558 153.386C122.558 130.584 122.558 3.75 122.558 3.75H81.943Z" fill="#E4BA42"/>
</svg>
